<?xml version="1.0" encoding="utf-8"?>
<!-- Generator: Adobe Illustrator 22.1.0, SVG Export Plug-In . SVG Version: 6.00 Build 0)  -->
<svg version="1.1" id="Layer_1" xmlns="http://www.w3.org/2000/svg" xmlns:xlink="http://www.w3.org/1999/xlink" x="0px" y="0px"
	 viewBox="0 0 63 46" style="enable-background:new 0 0 63 46;" xml:space="preserve">
<title>logo-black</title>
<desc>Created with Sketch.</desc>
<g>
	<g>
		<path d="M34.8,15.6l0,4.6c0,0.2-0.2,0.4-0.4,0.3l-7.1-4.1c-0.2-0.1-0.2-0.4,0-0.5c1.2-0.8,2.7-1.2,4.3-1.2c1.1,0,2.1,0.2,3.1,0.6
			C34.7,15.4,34.8,15.5,34.8,15.6z"/>
		<path d="M39.6,22.2l-4,2.3c-0.2,0.1-0.4,0-0.4-0.3l0-8.2c0-0.2,0.2-0.4,0.4-0.3c2.2,1.3,3.8,3.5,4.1,6.1
			C39.7,22,39.7,22.2,39.6,22.2z"/>
		<path d="M36.2,29.6l-4-2.3c-0.2-0.1-0.2-0.4,0-0.5l7.1-4c0.2-0.1,0.4,0,0.4,0.3c0,1.2-0.3,4.3-3.2,6.6
			C36.5,29.6,36.3,29.6,36.2,29.6z"/>
		<path d="M35.7,29.6c0.2,0.1,0.2,0.4,0,0.5c-1.2,0.7-2.7,1.1-4.2,1.1c-1.1,0-2.2-0.2-3.2-0.6c-0.1,0-0.2-0.2-0.2-0.3v-4.6
			c0-0.2,0.2-0.4,0.4-0.3L35.7,29.6z"/>
		<path d="M27.9,21.8V30c0,0.2-0.2,0.4-0.4,0.3c-2.2-1.3-3.8-3.5-4.1-6.1c0-0.1,0-0.2,0.1-0.3l4-2.3C27.6,21.4,27.9,21.6,27.9,21.8z
			"/>
		<path d="M30.7,19.3l-7,4c-0.2,0.1-0.4,0-0.4-0.2c0,0,0-0.1,0-0.1c0-2.6,1.2-5,3.1-6.5c0.1-0.1,0.2-0.1,0.3,0l4,2.3
			C30.9,18.9,30.9,19.2,30.7,19.3z"/>
	</g>
	<path d="M47.1,9.8l-3.1,3.1c-0.3,0.3-0.3,0.9,0,1.3l8.5,8.4c0.3,0.3,0.4,0.9,0,1.3L40.3,36.1c-4.6,4.6-11.5,3.1-17.6-0.9
		c-0.3-0.2-0.8-0.2-1.1,0.1l-3.2,3.2c-0.4,0.4-0.3,1,0.1,1.3c8.6,6.1,18.7,8.1,26.1,0.7l16.5-16.5c0.3-0.3,0.3-0.9,0-1.2L48.3,9.8
		C48,9.5,47.4,9.5,47.1,9.8z M10.5,23.9c-0.4-0.3-0.4-0.9,0-1.3l12.2-12.2c4.9-4.9,11.4-4,17.3,0.3c0.3,0.3,0.8,0.2,1.1-0.1l3.2-3.2
		c0.4-0.4,0.3-1-0.1-1.3c-8.5-6.5-18.1-7.9-25.9-0.1L1.8,22.6c-0.3,0.3-0.3,0.9,0,1.3l12.6,12.4c0.3,0.3,0.9,0.3,1.2,0l3.1-3.1
		c0.3-0.3,0.3-0.9,0-1.3L10.5,23.9z"/>
</g>
</svg>
