<?xml version="1.0" encoding="utf-8"?>
<!-- Generator: Adobe Illustrator 22.1.0, SVG Export Plug-In . SVG Version: 6.00 Build 0)  -->
<svg version="1.1" id="Layer_1" xmlns="http://www.w3.org/2000/svg" xmlns:xlink="http://www.w3.org/1999/xlink" x="0px" y="0px"
	 viewBox="0 0 45 37" style="enable-background:new 0 0 45 37;" xml:space="preserve">
<title>Asset 1</title>
<desc>Created with Sketch.</desc>
<g>
	<g>
		<path d="M24.9,13v3.4c0,0.2-0.2,0.3-0.3,0.2l-5.3-3c-0.1-0.1-0.1-0.3,0-0.4c0.9-0.6,2-0.9,3.2-0.9c0.8,0,1.6,0.2,2.3,0.4
			C24.9,12.8,24.9,12.9,24.9,13z"/>
		<path d="M28.5,17.9l-3,1.7c-0.1,0.1-0.3,0-0.3-0.2l0-6.1c0-0.2,0.2-0.3,0.3-0.2c1.6,0.9,2.8,2.6,3.1,4.6
			C28.6,17.8,28.6,17.9,28.5,17.9z"/>
		<path d="M26,23.4l-3-1.7c-0.1-0.1-0.1-0.3,0-0.4l5.3-3c0.1-0.1,0.3,0,0.3,0.2c0,0.9-0.2,3.2-2.4,4.9C26.2,23.4,26.1,23.4,26,23.4z
			"/>
		<path d="M25.6,23.4c0.1,0.1,0.1,0.3,0,0.4c-0.9,0.5-2,0.8-3.1,0.8c-0.9,0-1.6-0.1-2.3-0.4c-0.1,0-0.1-0.1-0.1-0.2v-3.4
			c0-0.2,0.2-0.3,0.3-0.2L25.6,23.4z"/>
		<path d="M19.8,17.6v6.1c0,0.2-0.2,0.3-0.3,0.2c-1.6-0.9-2.8-2.6-3.1-4.5c0-0.1,0-0.2,0.1-0.2l3-1.7C19.6,17.3,19.8,17.4,19.8,17.6
			z"/>
		<path d="M21.9,15.7l-5.2,3c-0.1,0.1-0.3,0-0.3-0.2c0,0,0,0,0-0.1c0-2,0.9-3.7,2.3-4.8c0.1-0.1,0.2-0.1,0.2,0l3,1.7
			C22.1,15.4,22.1,15.7,21.9,15.7z"/>
	</g>
	<path d="M34.1,8.7L31.7,11c-0.3,0.3-0.3,0.7,0,0.9l6.4,6.3c0.3,0.3,0.3,0.7,0,0.9L29,28.2c-3.4,3.4-8.5,2.3-13-0.7
		c-0.3-0.2-0.6-0.1-0.8,0.1L12.8,30c-0.3,0.3-0.2,0.8,0.1,1c6.4,4.5,13.9,6,19.4,0.5l12.3-12.3c0.3-0.3,0.3-0.7,0-0.9L35,8.7
		C34.7,8.4,34.3,8.4,34.1,8.7z M6.9,19.2c-0.3-0.3-0.3-0.7,0-0.9L16,9.2c3.7-3.7,8.4-3,12.9,0.2c0.3,0.2,0.6,0.2,0.8-0.1L32,7
		c0.3-0.3,0.2-0.7-0.1-1c-6.3-4.8-13.5-5.9-19.3-0.1L0.4,18.2c-0.3,0.3-0.3,0.7,0,0.9l9.3,9.2c0.3,0.3,0.7,0.3,0.9,0L13,26
		c0.3-0.3,0.3-0.7,0-0.9L6.9,19.2z"/>
</g>
</svg>
