<?xml version="1.0" encoding="utf-8"?>
<!-- Generator: Adobe Illustrator 22.1.0, SVG Export Plug-In . SVG Version: 6.00 Build 0)  -->
<svg version="1.1" id="Layer_1" xmlns="http://www.w3.org/2000/svg" xmlns:xlink="http://www.w3.org/1999/xlink" x="0px" y="0px"
	 viewBox="0 0 46 46" style="enable-background:new 0 0 46 46;" xml:space="preserve">
<style type="text/css">
	.st0{fill:#FFFFFF;}
</style>
<title>logo-favicon</title>
<desc>Created with Sketch.</desc>
<g id="Page-1">
	<path d="M42,46H4c-2.2,0-4-1.8-4-4V4c0-2.2,1.8-4,4-4h38c2.2,0,4,1.8,4,4v38C46,44.2,44.2,46,42,46z"/>
</g>
<g>
	<g>
		<path class="st0" d="M25.4,17.5v3.4c0,0.2-0.2,0.3-0.3,0.2l-5.3-3c-0.1-0.1-0.1-0.3,0-0.4c0.9-0.6,2-0.9,3.2-0.9
			c0.8,0,1.6,0.2,2.3,0.4C25.4,17.3,25.4,17.4,25.4,17.5z"/>
		<path class="st0" d="M29,22.4l-3,1.7c-0.1,0.1-0.3,0-0.3-0.2l0-6.1c0-0.2,0.2-0.3,0.3-0.2c1.6,0.9,2.8,2.6,3.1,4.6
			C29.1,22.3,29.1,22.4,29,22.4z"/>
		<path class="st0" d="M26.5,27.9l-3-1.7c-0.1-0.1-0.1-0.3,0-0.4l5.3-3c0.1-0.1,0.3,0,0.3,0.2c0,0.9-0.2,3.2-2.4,4.9
			C26.7,27.9,26.6,27.9,26.5,27.9z"/>
		<path class="st0" d="M26.1,27.9c0.1,0.1,0.1,0.3,0,0.4c-0.9,0.5-2,0.8-3.1,0.8c-0.9,0-1.6-0.1-2.3-0.4c-0.1,0-0.1-0.1-0.1-0.2V25
			c0-0.2,0.2-0.3,0.3-0.2L26.1,27.9z"/>
		<path class="st0" d="M20.3,22.1v6.1c0,0.2-0.2,0.3-0.3,0.2c-1.6-0.9-2.8-2.6-3.1-4.5c0-0.1,0-0.2,0.1-0.2l3-1.7
			C20.1,21.8,20.3,21.9,20.3,22.1z"/>
		<path class="st0" d="M22.4,20.2l-5.2,3c-0.1,0.1-0.3,0-0.3-0.2c0,0,0,0,0-0.1c0-2,0.9-3.7,2.3-4.8c0.1-0.1,0.2-0.1,0.2,0l3,1.7
			C22.6,19.9,22.6,20.2,22.4,20.2z"/>
	</g>
	<path class="st0" d="M34.6,13.2l-2.3,2.3c-0.3,0.3-0.3,0.7,0,0.9l6.4,6.3c0.3,0.3,0.3,0.7,0,0.9l-9.1,9.1c-3.4,3.4-8.5,2.3-13-0.7
		c-0.3-0.2-0.6-0.1-0.8,0.1l-2.4,2.4c-0.3,0.3-0.2,0.8,0.1,1c6.4,4.5,13.9,6,19.4,0.5l12.3-12.3c0.3-0.3,0.3-0.7,0-0.9l-9.6-9.6
		C35.2,12.9,34.8,12.9,34.6,13.2z M7.4,23.7c-0.3-0.3-0.3-0.7,0-0.9l9.1-9.1c3.7-3.7,8.4-3,12.9,0.2c0.3,0.2,0.6,0.2,0.8-0.1
		l2.4-2.4c0.3-0.3,0.2-0.7-0.1-1C26.2,5.7,19,4.7,13.2,10.4L0.9,22.7c-0.3,0.3-0.3,0.7,0,0.9l9.3,9.2c0.3,0.3,0.7,0.3,0.9,0l2.3-2.3
		c0.3-0.3,0.3-0.7,0-0.9L7.4,23.7z"/>
</g>
</svg>
